<mxfile host="app.diagrams.net" agent="Mozilla/5.0 (Windows NT 10.0; Win64; x64) AppleWebKit/537.36 (KHTML, like Gecko) Chrome/139.0.0.0 Safari/537.36" version="28.1.1">
  <diagram name="Página-1" id="qUH3Cb45mdjdp0MA3BL6">
    <mxGraphModel dx="2316" dy="1171" grid="1" gridSize="10" guides="1" tooltips="1" connect="1" arrows="1" fold="1" page="1" pageScale="1" pageWidth="10000" pageHeight="6000" math="0" shadow="0">
      <root>
        <mxCell id="0" />
        <mxCell id="1" parent="0" />
        <mxCell id="uiEqAPAhNv8nmmNgFj_g-79" style="edgeStyle=orthogonalEdgeStyle;rounded=0;orthogonalLoop=1;jettySize=auto;html=1;entryX=0.5;entryY=0;entryDx=0;entryDy=0;" parent="1" source="uiEqAPAhNv8nmmNgFj_g-1" target="uiEqAPAhNv8nmmNgFj_g-78" edge="1">
          <mxGeometry relative="1" as="geometry" />
        </mxCell>
        <mxCell id="uiEqAPAhNv8nmmNgFj_g-1" value="" style="ellipse;whiteSpace=wrap;html=1;aspect=fixed;" parent="1" vertex="1">
          <mxGeometry x="4212.5" y="50" width="30" height="30" as="geometry" />
        </mxCell>
        <mxCell id="uiEqAPAhNv8nmmNgFj_g-4" value="Start" style="text;html=1;align=center;verticalAlign=middle;whiteSpace=wrap;rounded=0;" parent="1" vertex="1">
          <mxGeometry x="4197.5" y="20" width="60" height="30" as="geometry" />
        </mxCell>
        <mxCell id="ht20jA6_04MrXd1RnvOE-6" style="edgeStyle=orthogonalEdgeStyle;rounded=0;orthogonalLoop=1;jettySize=auto;html=1;" edge="1" parent="1" source="uiEqAPAhNv8nmmNgFj_g-10" target="uiEqAPAhNv8nmmNgFj_g-27">
          <mxGeometry relative="1" as="geometry" />
        </mxCell>
        <mxCell id="uiEqAPAhNv8nmmNgFj_g-10" value="1. Alocar Carro" style="rounded=1;whiteSpace=wrap;html=1;" parent="1" vertex="1">
          <mxGeometry x="600" y="570" width="120" height="60" as="geometry" />
        </mxCell>
        <mxCell id="ht20jA6_04MrXd1RnvOE-38" style="edgeStyle=orthogonalEdgeStyle;rounded=0;orthogonalLoop=1;jettySize=auto;html=1;entryX=0.5;entryY=0;entryDx=0;entryDy=0;" edge="1" parent="1" source="uiEqAPAhNv8nmmNgFj_g-11" target="ht20jA6_04MrXd1RnvOE-37">
          <mxGeometry relative="1" as="geometry" />
        </mxCell>
        <mxCell id="uiEqAPAhNv8nmmNgFj_g-11" value="2. Remover Carro" style="rounded=1;whiteSpace=wrap;html=1;" parent="1" vertex="1">
          <mxGeometry x="2300" y="535" width="120" height="60" as="geometry" />
        </mxCell>
        <mxCell id="uiEqAPAhNv8nmmNgFj_g-12" value="3. Ver Lista de Carros alocados" style="rounded=1;whiteSpace=wrap;html=1;" parent="1" vertex="1">
          <mxGeometry x="3580" y="3305" width="120" height="60" as="geometry" />
        </mxCell>
        <mxCell id="uiEqAPAhNv8nmmNgFj_g-13" value="5. Ver lista de Vagas Desocupadas" style="rounded=1;whiteSpace=wrap;html=1;" parent="1" vertex="1">
          <mxGeometry x="3860" y="3420" width="120" height="60" as="geometry" />
        </mxCell>
        <mxCell id="uiEqAPAhNv8nmmNgFj_g-14" value="4. Ver Lista de Vagas Ocupadas" style="rounded=1;whiteSpace=wrap;html=1;" parent="1" vertex="1">
          <mxGeometry x="3660" y="3400" width="120" height="60" as="geometry" />
        </mxCell>
        <mxCell id="uiEqAPAhNv8nmmNgFj_g-29" style="edgeStyle=orthogonalEdgeStyle;rounded=0;orthogonalLoop=1;jettySize=auto;html=1;" parent="1" source="uiEqAPAhNv8nmmNgFj_g-27" target="uiEqAPAhNv8nmmNgFj_g-30" edge="1">
          <mxGeometry relative="1" as="geometry">
            <mxPoint x="660" y="820" as="targetPoint" />
          </mxGeometry>
        </mxCell>
        <mxCell id="uiEqAPAhNv8nmmNgFj_g-27" value="Inserir placa do carro" style="rounded=1;whiteSpace=wrap;html=1;" parent="1" vertex="1">
          <mxGeometry x="600" y="690" width="120" height="60" as="geometry" />
        </mxCell>
        <mxCell id="uiEqAPAhNv8nmmNgFj_g-31" style="edgeStyle=orthogonalEdgeStyle;rounded=0;orthogonalLoop=1;jettySize=auto;html=1;" parent="1" source="uiEqAPAhNv8nmmNgFj_g-30" target="uiEqAPAhNv8nmmNgFj_g-32" edge="1">
          <mxGeometry relative="1" as="geometry">
            <mxPoint x="660" y="950" as="targetPoint" />
          </mxGeometry>
        </mxCell>
        <mxCell id="uiEqAPAhNv8nmmNgFj_g-30" value="Inserir modelo do carro" style="rounded=1;whiteSpace=wrap;html=1;" parent="1" vertex="1">
          <mxGeometry x="600" y="820" width="120" height="60" as="geometry" />
        </mxCell>
        <mxCell id="uiEqAPAhNv8nmmNgFj_g-34" style="edgeStyle=orthogonalEdgeStyle;rounded=0;orthogonalLoop=1;jettySize=auto;html=1;" parent="1" source="uiEqAPAhNv8nmmNgFj_g-32" edge="1" target="uiEqAPAhNv8nmmNgFj_g-36">
          <mxGeometry relative="1" as="geometry">
            <mxPoint x="660" y="1080" as="targetPoint" />
          </mxGeometry>
        </mxCell>
        <mxCell id="uiEqAPAhNv8nmmNgFj_g-32" value="Inserir nome do dono do carro" style="rounded=1;whiteSpace=wrap;html=1;" parent="1" vertex="1">
          <mxGeometry x="600" y="950" width="120" height="60" as="geometry" />
        </mxCell>
        <mxCell id="uiEqAPAhNv8nmmNgFj_g-40" style="edgeStyle=orthogonalEdgeStyle;rounded=0;orthogonalLoop=1;jettySize=auto;html=1;entryX=0.5;entryY=0;entryDx=0;entryDy=0;" parent="1" source="uiEqAPAhNv8nmmNgFj_g-36" target="ht20jA6_04MrXd1RnvOE-47" edge="1">
          <mxGeometry relative="1" as="geometry">
            <mxPoint x="490" y="1280" as="targetPoint" />
          </mxGeometry>
        </mxCell>
        <mxCell id="uiEqAPAhNv8nmmNgFj_g-41" style="edgeStyle=orthogonalEdgeStyle;rounded=0;orthogonalLoop=1;jettySize=auto;html=1;entryX=0.5;entryY=0;entryDx=0;entryDy=0;" parent="1" source="uiEqAPAhNv8nmmNgFj_g-36" target="ht20jA6_04MrXd1RnvOE-48" edge="1">
          <mxGeometry relative="1" as="geometry">
            <mxPoint x="830" y="1280" as="targetPoint" />
          </mxGeometry>
        </mxCell>
        <mxCell id="uiEqAPAhNv8nmmNgFj_g-36" value="" style="rhombus;whiteSpace=wrap;html=1;" parent="1" vertex="1">
          <mxGeometry x="633.75" y="1120" width="52.5" height="50" as="geometry" />
        </mxCell>
        <mxCell id="uiEqAPAhNv8nmmNgFj_g-42" style="edgeStyle=orthogonalEdgeStyle;rounded=0;orthogonalLoop=1;jettySize=auto;html=1;exitX=0.5;exitY=1;exitDx=0;exitDy=0;" parent="1" target="uiEqAPAhNv8nmmNgFj_g-43" edge="1" source="ht20jA6_04MrXd1RnvOE-47">
          <mxGeometry relative="1" as="geometry">
            <mxPoint x="490" y="1470" as="targetPoint" />
            <mxPoint x="490" y="1350" as="sourcePoint" />
          </mxGeometry>
        </mxCell>
        <mxCell id="uiEqAPAhNv8nmmNgFj_g-50" style="edgeStyle=orthogonalEdgeStyle;rounded=0;orthogonalLoop=1;jettySize=auto;html=1;entryX=0;entryY=0.5;entryDx=0;entryDy=0;" parent="1" source="uiEqAPAhNv8nmmNgFj_g-43" target="uiEqAPAhNv8nmmNgFj_g-46" edge="1">
          <mxGeometry relative="1" as="geometry" />
        </mxCell>
        <mxCell id="uiEqAPAhNv8nmmNgFj_g-43" value="Inserir cpf do dono do carro" style="rounded=1;whiteSpace=wrap;html=1;" parent="1" vertex="1">
          <mxGeometry x="430" y="1440" width="120" height="60" as="geometry" />
        </mxCell>
        <mxCell id="uiEqAPAhNv8nmmNgFj_g-86" style="edgeStyle=orthogonalEdgeStyle;rounded=0;orthogonalLoop=1;jettySize=auto;html=1;" parent="1" source="uiEqAPAhNv8nmmNgFj_g-46" target="uiEqAPAhNv8nmmNgFj_g-56" edge="1">
          <mxGeometry relative="1" as="geometry">
            <mxPoint x="665" y="1660" as="targetPoint" />
          </mxGeometry>
        </mxCell>
        <mxCell id="uiEqAPAhNv8nmmNgFj_g-46" value="" style="rounded=0;whiteSpace=wrap;html=1;" parent="1" vertex="1">
          <mxGeometry x="520" y="1580" width="290" height="30" as="geometry" />
        </mxCell>
        <mxCell id="uiEqAPAhNv8nmmNgFj_g-60" style="edgeStyle=orthogonalEdgeStyle;rounded=0;orthogonalLoop=1;jettySize=auto;html=1;" parent="1" source="uiEqAPAhNv8nmmNgFj_g-56" target="ht20jA6_04MrXd1RnvOE-51" edge="1">
          <mxGeometry relative="1" as="geometry">
            <mxPoint x="500" y="1910" as="targetPoint" />
          </mxGeometry>
        </mxCell>
        <mxCell id="uiEqAPAhNv8nmmNgFj_g-56" value="" style="rhombus;whiteSpace=wrap;html=1;" parent="1" vertex="1">
          <mxGeometry x="640" y="1810" width="50" height="50" as="geometry" />
        </mxCell>
        <mxCell id="uiEqAPAhNv8nmmNgFj_g-72" style="edgeStyle=orthogonalEdgeStyle;rounded=0;orthogonalLoop=1;jettySize=auto;html=1;entryX=0.5;entryY=0;entryDx=0;entryDy=0;exitX=0.5;exitY=1;exitDx=0;exitDy=0;" parent="1" source="ht20jA6_04MrXd1RnvOE-52" target="uiEqAPAhNv8nmmNgFj_g-71" edge="1">
          <mxGeometry relative="1" as="geometry">
            <mxPoint x="850" y="1970" as="sourcePoint" />
          </mxGeometry>
        </mxCell>
        <mxCell id="uiEqAPAhNv8nmmNgFj_g-61" style="edgeStyle=orthogonalEdgeStyle;rounded=0;orthogonalLoop=1;jettySize=auto;html=1;exitX=0.5;exitY=1;exitDx=0;exitDy=0;" parent="1" edge="1">
          <mxGeometry relative="1" as="geometry">
            <mxPoint x="850" y="1970" as="sourcePoint" />
            <mxPoint x="850" y="1970" as="targetPoint" />
          </mxGeometry>
        </mxCell>
        <mxCell id="uiEqAPAhNv8nmmNgFj_g-62" style="edgeStyle=orthogonalEdgeStyle;rounded=0;orthogonalLoop=1;jettySize=auto;html=1;entryX=0.5;entryY=0;entryDx=0;entryDy=0;" parent="1" source="uiEqAPAhNv8nmmNgFj_g-56" target="ht20jA6_04MrXd1RnvOE-52" edge="1">
          <mxGeometry relative="1" as="geometry">
            <mxPoint x="843" y="1860" as="targetPoint" />
          </mxGeometry>
        </mxCell>
        <mxCell id="uiEqAPAhNv8nmmNgFj_g-70" style="edgeStyle=orthogonalEdgeStyle;rounded=0;orthogonalLoop=1;jettySize=auto;html=1;entryX=0.5;entryY=0;entryDx=0;entryDy=0;" parent="1" source="uiEqAPAhNv8nmmNgFj_g-67" target="uiEqAPAhNv8nmmNgFj_g-69" edge="1">
          <mxGeometry relative="1" as="geometry" />
        </mxCell>
        <mxCell id="uiEqAPAhNv8nmmNgFj_g-67" value="Escolher número da vaga disponível" style="rounded=1;whiteSpace=wrap;html=1;" parent="1" vertex="1">
          <mxGeometry x="440" y="2145" width="120" height="60" as="geometry" />
        </mxCell>
        <mxCell id="ht20jA6_04MrXd1RnvOE-5" style="edgeStyle=orthogonalEdgeStyle;rounded=0;orthogonalLoop=1;jettySize=auto;html=1;entryX=0.5;entryY=0;entryDx=0;entryDy=0;" edge="1" parent="1" source="uiEqAPAhNv8nmmNgFj_g-69" target="uiEqAPAhNv8nmmNgFj_g-89">
          <mxGeometry relative="1" as="geometry" />
        </mxCell>
        <mxCell id="uiEqAPAhNv8nmmNgFj_g-69" value="Adicionar carro na vaga escolhida" style="rounded=1;whiteSpace=wrap;html=1;" parent="1" vertex="1">
          <mxGeometry x="440" y="2270" width="120" height="60" as="geometry" />
        </mxCell>
        <mxCell id="uiEqAPAhNv8nmmNgFj_g-71" value="Mensagem: &quot;Não há vagas disponíveis no momento!&quot;" style="rounded=1;whiteSpace=wrap;html=1;" parent="1" vertex="1">
          <mxGeometry x="790" y="2050" width="120" height="60" as="geometry" />
        </mxCell>
        <mxCell id="ht20jA6_04MrXd1RnvOE-7" style="edgeStyle=orthogonalEdgeStyle;rounded=0;orthogonalLoop=1;jettySize=auto;html=1;" edge="1" parent="1" source="uiEqAPAhNv8nmmNgFj_g-78" target="ht20jA6_04MrXd1RnvOE-8">
          <mxGeometry relative="1" as="geometry">
            <mxPoint x="4227.5" y="310" as="targetPoint" />
          </mxGeometry>
        </mxCell>
        <mxCell id="uiEqAPAhNv8nmmNgFj_g-78" value="Menu de interação (principal)" style="shape=parallelogram;perimeter=parallelogramPerimeter;whiteSpace=wrap;html=1;fixedSize=1;" parent="1" vertex="1">
          <mxGeometry x="4167.5" y="150" width="120" height="60" as="geometry" />
        </mxCell>
        <mxCell id="uiEqAPAhNv8nmmNgFj_g-94" style="edgeStyle=orthogonalEdgeStyle;rounded=0;orthogonalLoop=1;jettySize=auto;html=1;entryX=0.5;entryY=0;entryDx=0;entryDy=0;" parent="1" source="uiEqAPAhNv8nmmNgFj_g-89" target="ht20jA6_04MrXd1RnvOE-54" edge="1">
          <mxGeometry relative="1" as="geometry">
            <mxPoint x="870" y="2460" as="targetPoint" />
          </mxGeometry>
        </mxCell>
        <mxCell id="uiEqAPAhNv8nmmNgFj_g-95" style="edgeStyle=orthogonalEdgeStyle;rounded=0;orthogonalLoop=1;jettySize=auto;html=1;entryX=0.5;entryY=0;entryDx=0;entryDy=0;" parent="1" source="uiEqAPAhNv8nmmNgFj_g-89" target="ht20jA6_04MrXd1RnvOE-53" edge="1">
          <mxGeometry relative="1" as="geometry">
            <mxPoint x="500" y="2460" as="targetPoint" />
          </mxGeometry>
        </mxCell>
        <mxCell id="uiEqAPAhNv8nmmNgFj_g-89" value="" style="rhombus;whiteSpace=wrap;html=1;" parent="1" vertex="1">
          <mxGeometry x="651.25" y="2350" width="52.5" height="50" as="geometry" />
        </mxCell>
        <mxCell id="uiEqAPAhNv8nmmNgFj_g-96" value="OPÇÃO 1" style="text;html=1;align=center;verticalAlign=middle;whiteSpace=wrap;rounded=0;" parent="1" vertex="1">
          <mxGeometry x="600" y="540" width="60" height="30" as="geometry" />
        </mxCell>
        <mxCell id="uiEqAPAhNv8nmmNgFj_g-97" value="OPÇÃO 2" style="text;html=1;align=center;verticalAlign=middle;whiteSpace=wrap;rounded=0;" parent="1" vertex="1">
          <mxGeometry x="2290" y="505" width="60" height="30" as="geometry" />
        </mxCell>
        <mxCell id="uiEqAPAhNv8nmmNgFj_g-98" value="OPÇÃO 1" style="text;html=1;align=center;verticalAlign=middle;whiteSpace=wrap;rounded=0;" parent="1" vertex="1">
          <mxGeometry x="3500" y="3250" width="60" height="30" as="geometry" />
        </mxCell>
        <mxCell id="uiEqAPAhNv8nmmNgFj_g-99" value="OPÇÃO 1" style="text;html=1;align=center;verticalAlign=middle;whiteSpace=wrap;rounded=0;" parent="1" vertex="1">
          <mxGeometry x="3570" y="3365" width="60" height="30" as="geometry" />
        </mxCell>
        <mxCell id="uiEqAPAhNv8nmmNgFj_g-100" value="OPÇÃO 1" style="text;html=1;align=center;verticalAlign=middle;whiteSpace=wrap;rounded=0;" parent="1" vertex="1">
          <mxGeometry x="3500" y="3310" width="60" height="30" as="geometry" />
        </mxCell>
        <mxCell id="ht20jA6_04MrXd1RnvOE-9" style="edgeStyle=orthogonalEdgeStyle;rounded=0;orthogonalLoop=1;jettySize=auto;html=1;" edge="1" parent="1" source="ht20jA6_04MrXd1RnvOE-8" target="uiEqAPAhNv8nmmNgFj_g-10">
          <mxGeometry relative="1" as="geometry" />
        </mxCell>
        <mxCell id="ht20jA6_04MrXd1RnvOE-14" style="edgeStyle=orthogonalEdgeStyle;rounded=0;orthogonalLoop=1;jettySize=auto;html=1;entryX=0.5;entryY=0;entryDx=0;entryDy=0;" edge="1" parent="1" source="ht20jA6_04MrXd1RnvOE-8" target="uiEqAPAhNv8nmmNgFj_g-11">
          <mxGeometry relative="1" as="geometry" />
        </mxCell>
        <mxCell id="ht20jA6_04MrXd1RnvOE-8" value="Escolha da opção" style="rhombus;whiteSpace=wrap;html=1;" vertex="1" parent="1">
          <mxGeometry x="4160" y="270" width="135" height="110" as="geometry" />
        </mxCell>
        <mxCell id="ht20jA6_04MrXd1RnvOE-15" value="Há vagas disponíveis no momento?" style="text;html=1;align=center;verticalAlign=middle;whiteSpace=wrap;rounded=0;" vertex="1" parent="1">
          <mxGeometry x="680" y="1770" width="60" height="30" as="geometry" />
        </mxCell>
        <mxCell id="ht20jA6_04MrXd1RnvOE-18" value="Alocar mais um carro?" style="text;html=1;align=center;verticalAlign=middle;whiteSpace=wrap;rounded=0;" vertex="1" parent="1">
          <mxGeometry x="700" y="2311" width="60" height="30" as="geometry" />
        </mxCell>
        <mxCell id="ht20jA6_04MrXd1RnvOE-19" value="Inserir CPF do dono do carro?" style="text;html=1;align=center;verticalAlign=middle;whiteSpace=wrap;rounded=0;" vertex="1" parent="1">
          <mxGeometry x="700" y="1080" width="60" height="30" as="geometry" />
        </mxCell>
        <mxCell id="ht20jA6_04MrXd1RnvOE-26" value="" style="endArrow=classic;html=1;rounded=0;entryX=0;entryY=0.5;entryDx=0;entryDy=0;dashed=1;" edge="1" parent="1" target="uiEqAPAhNv8nmmNgFj_g-78">
          <mxGeometry width="50" height="50" relative="1" as="geometry">
            <mxPoint x="210" y="180" as="sourcePoint" />
            <mxPoint x="1360" y="180" as="targetPoint" />
          </mxGeometry>
        </mxCell>
        <mxCell id="ht20jA6_04MrXd1RnvOE-28" value="" style="endArrow=none;html=1;rounded=0;entryX=0.5;entryY=1;entryDx=0;entryDy=0;dashed=1;" edge="1" parent="1" target="ht20jA6_04MrXd1RnvOE-54">
          <mxGeometry width="50" height="50" relative="1" as="geometry">
            <mxPoint x="870" y="2670" as="sourcePoint" />
            <mxPoint x="870" y="2540.0000000000005" as="targetPoint" />
          </mxGeometry>
        </mxCell>
        <mxCell id="ht20jA6_04MrXd1RnvOE-30" value="" style="endArrow=none;html=1;rounded=0;dashed=1;" edge="1" parent="1">
          <mxGeometry width="50" height="50" relative="1" as="geometry">
            <mxPoint x="210" y="2670" as="sourcePoint" />
            <mxPoint x="210" y="180" as="targetPoint" />
          </mxGeometry>
        </mxCell>
        <mxCell id="ht20jA6_04MrXd1RnvOE-31" value="" style="endArrow=none;html=1;rounded=0;dashed=1;" edge="1" parent="1">
          <mxGeometry width="50" height="50" relative="1" as="geometry">
            <mxPoint x="210" y="2670" as="sourcePoint" />
            <mxPoint x="870" y="2670" as="targetPoint" />
          </mxGeometry>
        </mxCell>
        <mxCell id="ht20jA6_04MrXd1RnvOE-32" value="" style="endArrow=none;dashed=1;html=1;rounded=0;entryX=0.5;entryY=1;entryDx=0;entryDy=0;" edge="1" parent="1" target="ht20jA6_04MrXd1RnvOE-53">
          <mxGeometry width="50" height="50" relative="1" as="geometry">
            <mxPoint x="500" y="2600" as="sourcePoint" />
            <mxPoint x="500" y="2540.0000000000005" as="targetPoint" />
          </mxGeometry>
        </mxCell>
        <mxCell id="ht20jA6_04MrXd1RnvOE-33" value="" style="endArrow=none;dashed=1;html=1;rounded=0;" edge="1" parent="1">
          <mxGeometry width="50" height="50" relative="1" as="geometry">
            <mxPoint x="280" y="2600" as="sourcePoint" />
            <mxPoint x="500" y="2600" as="targetPoint" />
          </mxGeometry>
        </mxCell>
        <mxCell id="ht20jA6_04MrXd1RnvOE-34" value="" style="endArrow=none;dashed=1;html=1;rounded=0;" edge="1" parent="1">
          <mxGeometry width="50" height="50" relative="1" as="geometry">
            <mxPoint x="280" y="600" as="sourcePoint" />
            <mxPoint x="280" y="2600" as="targetPoint" />
          </mxGeometry>
        </mxCell>
        <mxCell id="ht20jA6_04MrXd1RnvOE-36" value="" style="endArrow=classic;html=1;rounded=0;entryX=0;entryY=0.5;entryDx=0;entryDy=0;dashed=1;" edge="1" parent="1" target="uiEqAPAhNv8nmmNgFj_g-10">
          <mxGeometry width="50" height="50" relative="1" as="geometry">
            <mxPoint x="280" y="600" as="sourcePoint" />
            <mxPoint x="940" y="550" as="targetPoint" />
          </mxGeometry>
        </mxCell>
        <mxCell id="ht20jA6_04MrXd1RnvOE-40" style="edgeStyle=orthogonalEdgeStyle;rounded=0;orthogonalLoop=1;jettySize=auto;html=1;" edge="1" parent="1" source="ht20jA6_04MrXd1RnvOE-37" target="ht20jA6_04MrXd1RnvOE-39">
          <mxGeometry relative="1" as="geometry" />
        </mxCell>
        <mxCell id="ht20jA6_04MrXd1RnvOE-37" value="Inserir placa do carro no input de pesquisa" style="rounded=1;whiteSpace=wrap;html=1;" vertex="1" parent="1">
          <mxGeometry x="2300" y="675" width="120" height="60" as="geometry" />
        </mxCell>
        <mxCell id="ht20jA6_04MrXd1RnvOE-45" style="edgeStyle=orthogonalEdgeStyle;rounded=0;orthogonalLoop=1;jettySize=auto;html=1;entryX=0.5;entryY=0;entryDx=0;entryDy=0;" edge="1" parent="1" source="ht20jA6_04MrXd1RnvOE-39" target="ht20jA6_04MrXd1RnvOE-44">
          <mxGeometry relative="1" as="geometry" />
        </mxCell>
        <mxCell id="ht20jA6_04MrXd1RnvOE-39" value="Procurar o carro no estacionamento" style="rounded=1;whiteSpace=wrap;html=1;" vertex="1" parent="1">
          <mxGeometry x="2300" y="805" width="120" height="60" as="geometry" />
        </mxCell>
        <mxCell id="ht20jA6_04MrXd1RnvOE-55" style="edgeStyle=orthogonalEdgeStyle;rounded=0;orthogonalLoop=1;jettySize=auto;html=1;entryX=0.5;entryY=0;entryDx=0;entryDy=0;" edge="1" parent="1" source="ht20jA6_04MrXd1RnvOE-44" target="ht20jA6_04MrXd1RnvOE-56">
          <mxGeometry relative="1" as="geometry">
            <mxPoint x="2210" y="1085" as="targetPoint" />
          </mxGeometry>
        </mxCell>
        <mxCell id="ht20jA6_04MrXd1RnvOE-58" style="edgeStyle=orthogonalEdgeStyle;rounded=0;orthogonalLoop=1;jettySize=auto;html=1;" edge="1" parent="1" source="ht20jA6_04MrXd1RnvOE-44" target="ht20jA6_04MrXd1RnvOE-57">
          <mxGeometry relative="1" as="geometry" />
        </mxCell>
        <mxCell id="ht20jA6_04MrXd1RnvOE-44" value="" style="rhombus;whiteSpace=wrap;html=1;" vertex="1" parent="1">
          <mxGeometry x="2333.75" y="935" width="52.5" height="50" as="geometry" />
        </mxCell>
        <mxCell id="ht20jA6_04MrXd1RnvOE-46" value="O carro da placa digitada existe (está no estacionamento)?" style="text;html=1;align=center;verticalAlign=middle;whiteSpace=wrap;rounded=0;" vertex="1" parent="1">
          <mxGeometry x="2420" y="905" width="60" height="30" as="geometry" />
        </mxCell>
        <mxCell id="ht20jA6_04MrXd1RnvOE-47" value="Sim" style="text;html=1;align=center;verticalAlign=middle;whiteSpace=wrap;rounded=0;" vertex="1" parent="1">
          <mxGeometry x="460" y="1300" width="60" height="30" as="geometry" />
        </mxCell>
        <mxCell id="ht20jA6_04MrXd1RnvOE-50" style="edgeStyle=orthogonalEdgeStyle;rounded=0;orthogonalLoop=1;jettySize=auto;html=1;entryX=1;entryY=0.5;entryDx=0;entryDy=0;" edge="1" parent="1" source="ht20jA6_04MrXd1RnvOE-48" target="uiEqAPAhNv8nmmNgFj_g-46">
          <mxGeometry relative="1" as="geometry" />
        </mxCell>
        <mxCell id="ht20jA6_04MrXd1RnvOE-48" value="Não" style="text;html=1;align=center;verticalAlign=middle;whiteSpace=wrap;rounded=0;" vertex="1" parent="1">
          <mxGeometry x="800" y="1290" width="60" height="30" as="geometry" />
        </mxCell>
        <mxCell id="ht20jA6_04MrXd1RnvOE-165" value="" style="edgeStyle=orthogonalEdgeStyle;rounded=0;orthogonalLoop=1;jettySize=auto;html=1;" edge="1" parent="1" source="ht20jA6_04MrXd1RnvOE-51" target="ht20jA6_04MrXd1RnvOE-164">
          <mxGeometry relative="1" as="geometry" />
        </mxCell>
        <mxCell id="ht20jA6_04MrXd1RnvOE-51" value="Sim" style="text;html=1;align=center;verticalAlign=middle;whiteSpace=wrap;rounded=0;" vertex="1" parent="1">
          <mxGeometry x="470" y="1925" width="60" height="30" as="geometry" />
        </mxCell>
        <mxCell id="ht20jA6_04MrXd1RnvOE-52" value="Não" style="text;html=1;align=center;verticalAlign=middle;whiteSpace=wrap;rounded=0;" vertex="1" parent="1">
          <mxGeometry x="820" y="1920" width="60" height="30" as="geometry" />
        </mxCell>
        <mxCell id="ht20jA6_04MrXd1RnvOE-53" value="Sim" style="text;html=1;align=center;verticalAlign=middle;whiteSpace=wrap;rounded=0;" vertex="1" parent="1">
          <mxGeometry x="470" y="2500" width="60" height="30" as="geometry" />
        </mxCell>
        <mxCell id="ht20jA6_04MrXd1RnvOE-54" value="Não" style="text;html=1;align=center;verticalAlign=middle;whiteSpace=wrap;rounded=0;" vertex="1" parent="1">
          <mxGeometry x="840" y="2500" width="60" height="30" as="geometry" />
        </mxCell>
        <mxCell id="ht20jA6_04MrXd1RnvOE-59" style="edgeStyle=orthogonalEdgeStyle;rounded=0;orthogonalLoop=1;jettySize=auto;html=1;entryX=0.5;entryY=0;entryDx=0;entryDy=0;" edge="1" parent="1" source="ht20jA6_04MrXd1RnvOE-56" target="ht20jA6_04MrXd1RnvOE-61">
          <mxGeometry relative="1" as="geometry">
            <mxPoint x="2210" y="1195" as="targetPoint" />
          </mxGeometry>
        </mxCell>
        <mxCell id="ht20jA6_04MrXd1RnvOE-56" value="Sim" style="text;html=1;align=center;verticalAlign=middle;whiteSpace=wrap;rounded=0;" vertex="1" parent="1">
          <mxGeometry x="2180" y="1075" width="60" height="30" as="geometry" />
        </mxCell>
        <mxCell id="ht20jA6_04MrXd1RnvOE-156" style="edgeStyle=orthogonalEdgeStyle;rounded=0;orthogonalLoop=1;jettySize=auto;html=1;entryX=0.5;entryY=0;entryDx=0;entryDy=0;" edge="1" parent="1" source="ht20jA6_04MrXd1RnvOE-57" target="ht20jA6_04MrXd1RnvOE-155">
          <mxGeometry relative="1" as="geometry" />
        </mxCell>
        <mxCell id="ht20jA6_04MrXd1RnvOE-57" value="Não" style="text;html=1;align=center;verticalAlign=middle;whiteSpace=wrap;rounded=0;" vertex="1" parent="1">
          <mxGeometry x="2503.75" y="1075" width="60" height="30" as="geometry" />
        </mxCell>
        <mxCell id="ht20jA6_04MrXd1RnvOE-64" style="edgeStyle=orthogonalEdgeStyle;rounded=0;orthogonalLoop=1;jettySize=auto;html=1;entryX=0.5;entryY=0;entryDx=0;entryDy=0;" edge="1" parent="1" source="ht20jA6_04MrXd1RnvOE-61" target="ht20jA6_04MrXd1RnvOE-63">
          <mxGeometry relative="1" as="geometry" />
        </mxCell>
        <mxCell id="ht20jA6_04MrXd1RnvOE-66" style="edgeStyle=orthogonalEdgeStyle;rounded=0;orthogonalLoop=1;jettySize=auto;html=1;" edge="1" parent="1" source="ht20jA6_04MrXd1RnvOE-61" target="ht20jA6_04MrXd1RnvOE-65">
          <mxGeometry relative="1" as="geometry" />
        </mxCell>
        <mxCell id="ht20jA6_04MrXd1RnvOE-61" value="" style="rhombus;whiteSpace=wrap;html=1;" vertex="1" parent="1">
          <mxGeometry x="2100" y="1215" width="52.5" height="50" as="geometry" />
        </mxCell>
        <mxCell id="ht20jA6_04MrXd1RnvOE-62" value="Tem certeza de que deseja remover?" style="text;html=1;align=center;verticalAlign=middle;whiteSpace=wrap;rounded=0;" vertex="1" parent="1">
          <mxGeometry x="2040" y="1165" width="60" height="30" as="geometry" />
        </mxCell>
        <mxCell id="ht20jA6_04MrXd1RnvOE-68" style="edgeStyle=orthogonalEdgeStyle;rounded=0;orthogonalLoop=1;jettySize=auto;html=1;" edge="1" parent="1" source="ht20jA6_04MrXd1RnvOE-63" target="ht20jA6_04MrXd1RnvOE-67">
          <mxGeometry relative="1" as="geometry" />
        </mxCell>
        <mxCell id="ht20jA6_04MrXd1RnvOE-63" value="Sim" style="text;html=1;align=center;verticalAlign=middle;whiteSpace=wrap;rounded=0;" vertex="1" parent="1">
          <mxGeometry x="1930" y="1335" width="60" height="30" as="geometry" />
        </mxCell>
        <mxCell id="ht20jA6_04MrXd1RnvOE-77" style="edgeStyle=orthogonalEdgeStyle;rounded=0;orthogonalLoop=1;jettySize=auto;html=1;entryX=0.5;entryY=0;entryDx=0;entryDy=0;" edge="1" parent="1" source="ht20jA6_04MrXd1RnvOE-65" target="ht20jA6_04MrXd1RnvOE-76">
          <mxGeometry relative="1" as="geometry" />
        </mxCell>
        <mxCell id="ht20jA6_04MrXd1RnvOE-65" value="Não" style="text;html=1;align=center;verticalAlign=middle;whiteSpace=wrap;rounded=0;" vertex="1" parent="1">
          <mxGeometry x="2270" y="1325" width="60" height="30" as="geometry" />
        </mxCell>
        <mxCell id="ht20jA6_04MrXd1RnvOE-163" style="edgeStyle=orthogonalEdgeStyle;rounded=0;orthogonalLoop=1;jettySize=auto;html=1;entryX=0.5;entryY=0;entryDx=0;entryDy=0;" edge="1" parent="1" source="ht20jA6_04MrXd1RnvOE-67" target="ht20jA6_04MrXd1RnvOE-94">
          <mxGeometry relative="1" as="geometry" />
        </mxCell>
        <mxCell id="ht20jA6_04MrXd1RnvOE-67" value="Remover o carro do estacionamento" style="rounded=1;whiteSpace=wrap;html=1;" vertex="1" parent="1">
          <mxGeometry x="1900" y="1465" width="120" height="60" as="geometry" />
        </mxCell>
        <mxCell id="ht20jA6_04MrXd1RnvOE-82" style="edgeStyle=orthogonalEdgeStyle;rounded=0;orthogonalLoop=1;jettySize=auto;html=1;" edge="1" parent="1" source="ht20jA6_04MrXd1RnvOE-76" target="ht20jA6_04MrXd1RnvOE-81">
          <mxGeometry relative="1" as="geometry" />
        </mxCell>
        <mxCell id="ht20jA6_04MrXd1RnvOE-85" style="edgeStyle=orthogonalEdgeStyle;rounded=0;orthogonalLoop=1;jettySize=auto;html=1;entryX=0.5;entryY=0;entryDx=0;entryDy=0;" edge="1" parent="1" source="ht20jA6_04MrXd1RnvOE-76" target="ht20jA6_04MrXd1RnvOE-84">
          <mxGeometry relative="1" as="geometry" />
        </mxCell>
        <mxCell id="ht20jA6_04MrXd1RnvOE-76" value="" style="rhombus;whiteSpace=wrap;html=1;" vertex="1" parent="1">
          <mxGeometry x="2273.75" y="1455" width="52.5" height="50" as="geometry" />
        </mxCell>
        <mxCell id="ht20jA6_04MrXd1RnvOE-78" value="Deseja remover algum outro carro?" style="text;html=1;align=center;verticalAlign=middle;whiteSpace=wrap;rounded=0;" vertex="1" parent="1">
          <mxGeometry x="2320" y="1425" width="60" height="30" as="geometry" />
        </mxCell>
        <mxCell id="ht20jA6_04MrXd1RnvOE-81" value="Sim" style="text;html=1;align=center;verticalAlign=middle;whiteSpace=wrap;rounded=0;" vertex="1" parent="1">
          <mxGeometry x="2210" y="1595" width="60" height="30" as="geometry" />
        </mxCell>
        <mxCell id="ht20jA6_04MrXd1RnvOE-84" value="Não" style="text;html=1;align=center;verticalAlign=middle;whiteSpace=wrap;rounded=0;" vertex="1" parent="1">
          <mxGeometry x="2340" y="1595" width="60" height="30" as="geometry" />
        </mxCell>
        <mxCell id="ht20jA6_04MrXd1RnvOE-98" style="edgeStyle=orthogonalEdgeStyle;rounded=0;orthogonalLoop=1;jettySize=auto;html=1;entryX=0.5;entryY=0;entryDx=0;entryDy=0;" edge="1" parent="1" source="ht20jA6_04MrXd1RnvOE-94" target="ht20jA6_04MrXd1RnvOE-97">
          <mxGeometry relative="1" as="geometry" />
        </mxCell>
        <mxCell id="ht20jA6_04MrXd1RnvOE-100" style="edgeStyle=orthogonalEdgeStyle;rounded=0;orthogonalLoop=1;jettySize=auto;html=1;entryX=0.5;entryY=0;entryDx=0;entryDy=0;" edge="1" parent="1" source="ht20jA6_04MrXd1RnvOE-94" target="ht20jA6_04MrXd1RnvOE-99">
          <mxGeometry relative="1" as="geometry" />
        </mxCell>
        <mxCell id="ht20jA6_04MrXd1RnvOE-94" value="" style="rhombus;whiteSpace=wrap;html=1;" vertex="1" parent="1">
          <mxGeometry x="1933.75" y="1890" width="52.5" height="50" as="geometry" />
        </mxCell>
        <mxCell id="ht20jA6_04MrXd1RnvOE-96" value="Deseja remover mais um carro?" style="text;html=1;align=center;verticalAlign=middle;whiteSpace=wrap;rounded=0;" vertex="1" parent="1">
          <mxGeometry x="1970" y="1840" width="60" height="30" as="geometry" />
        </mxCell>
        <mxCell id="ht20jA6_04MrXd1RnvOE-97" value="Sim" style="text;html=1;align=center;verticalAlign=middle;whiteSpace=wrap;rounded=0;" vertex="1" parent="1">
          <mxGeometry x="1840" y="2030" width="60" height="30" as="geometry" />
        </mxCell>
        <mxCell id="ht20jA6_04MrXd1RnvOE-99" value="Não" style="text;html=1;align=center;verticalAlign=middle;whiteSpace=wrap;rounded=0;" vertex="1" parent="1">
          <mxGeometry x="2010" y="2030" width="60" height="30" as="geometry" />
        </mxCell>
        <mxCell id="ht20jA6_04MrXd1RnvOE-101" value="" style="endArrow=none;dashed=1;html=1;rounded=0;entryX=0.5;entryY=1;entryDx=0;entryDy=0;" edge="1" parent="1" target="ht20jA6_04MrXd1RnvOE-81">
          <mxGeometry width="50" height="50" relative="1" as="geometry">
            <mxPoint x="2240" y="1715" as="sourcePoint" />
            <mxPoint x="2350" y="1545" as="targetPoint" />
          </mxGeometry>
        </mxCell>
        <mxCell id="ht20jA6_04MrXd1RnvOE-102" value="" style="endArrow=none;dashed=1;html=1;rounded=0;" edge="1" parent="1">
          <mxGeometry width="50" height="50" relative="1" as="geometry">
            <mxPoint x="2240" y="1715" as="sourcePoint" />
            <mxPoint x="1770" y="1715" as="targetPoint" />
          </mxGeometry>
        </mxCell>
        <mxCell id="ht20jA6_04MrXd1RnvOE-103" value="" style="endArrow=none;dashed=1;html=1;rounded=0;" edge="1" parent="1">
          <mxGeometry width="50" height="50" relative="1" as="geometry">
            <mxPoint x="1770" y="1715" as="sourcePoint" />
            <mxPoint x="1770" y="565" as="targetPoint" />
          </mxGeometry>
        </mxCell>
        <mxCell id="ht20jA6_04MrXd1RnvOE-104" value="" style="endArrow=classic;html=1;rounded=0;entryX=0;entryY=0.5;entryDx=0;entryDy=0;dashed=1;" edge="1" parent="1" target="uiEqAPAhNv8nmmNgFj_g-11">
          <mxGeometry width="50" height="50" relative="1" as="geometry">
            <mxPoint x="1770" y="565" as="sourcePoint" />
            <mxPoint x="2350" y="695" as="targetPoint" />
          </mxGeometry>
        </mxCell>
        <mxCell id="ht20jA6_04MrXd1RnvOE-105" value="" style="endArrow=none;dashed=1;html=1;dashPattern=1 3;strokeWidth=2;rounded=0;exitX=0.5;exitY=1;exitDx=0;exitDy=0;" edge="1" parent="1" source="ht20jA6_04MrXd1RnvOE-84">
          <mxGeometry width="50" height="50" relative="1" as="geometry">
            <mxPoint x="2300" y="1645" as="sourcePoint" />
            <mxPoint x="2370" y="1785" as="targetPoint" />
          </mxGeometry>
        </mxCell>
        <mxCell id="ht20jA6_04MrXd1RnvOE-106" value="" style="endArrow=none;dashed=1;html=1;dashPattern=1 3;strokeWidth=2;rounded=0;" edge="1" parent="1">
          <mxGeometry width="50" height="50" relative="1" as="geometry">
            <mxPoint x="2370" y="1785" as="sourcePoint" />
            <mxPoint x="1700" y="1785" as="targetPoint" />
          </mxGeometry>
        </mxCell>
        <mxCell id="ht20jA6_04MrXd1RnvOE-107" value="" style="endArrow=none;dashed=1;html=1;rounded=0;" edge="1" parent="1">
          <mxGeometry width="50" height="50" relative="1" as="geometry">
            <mxPoint x="1700" y="1780" as="sourcePoint" />
            <mxPoint x="1700" y="180" as="targetPoint" />
          </mxGeometry>
        </mxCell>
        <mxCell id="ht20jA6_04MrXd1RnvOE-108" value="Line 1" style="text;html=1;align=center;verticalAlign=middle;whiteSpace=wrap;rounded=0;" vertex="1" parent="1">
          <mxGeometry x="320" y="2570" width="60" height="30" as="geometry" />
        </mxCell>
        <mxCell id="ht20jA6_04MrXd1RnvOE-111" value="Line 1" style="text;html=1;align=center;verticalAlign=middle;whiteSpace=wrap;rounded=0;" vertex="1" parent="1">
          <mxGeometry x="280" y="1520" width="60" height="30" as="geometry" />
        </mxCell>
        <mxCell id="ht20jA6_04MrXd1RnvOE-112" value="Line 1" style="text;html=1;align=center;verticalAlign=middle;whiteSpace=wrap;rounded=0;" vertex="1" parent="1">
          <mxGeometry x="340" y="570" width="60" height="30" as="geometry" />
        </mxCell>
        <mxCell id="ht20jA6_04MrXd1RnvOE-113" value="Line 2" style="text;html=1;align=center;verticalAlign=middle;whiteSpace=wrap;rounded=0;" vertex="1" parent="1">
          <mxGeometry x="120" y="560" width="60" height="30" as="geometry" />
        </mxCell>
        <mxCell id="ht20jA6_04MrXd1RnvOE-114" value="Line 2" style="text;html=1;align=center;verticalAlign=middle;whiteSpace=wrap;rounded=0;" vertex="1" parent="1">
          <mxGeometry x="140" y="1440" width="60" height="30" as="geometry" />
        </mxCell>
        <mxCell id="ht20jA6_04MrXd1RnvOE-115" value="Line 2" style="text;html=1;align=center;verticalAlign=middle;whiteSpace=wrap;rounded=0;" vertex="1" parent="1">
          <mxGeometry x="200" y="2670" width="60" height="30" as="geometry" />
        </mxCell>
        <mxCell id="ht20jA6_04MrXd1RnvOE-116" value="Line 2" style="text;html=1;align=center;verticalAlign=middle;whiteSpace=wrap;rounded=0;" vertex="1" parent="1">
          <mxGeometry x="290" y="145" width="60" height="30" as="geometry" />
        </mxCell>
        <mxCell id="ht20jA6_04MrXd1RnvOE-117" value="Line 3&lt;span style=&quot;color: rgba(0, 0, 0, 0); font-family: monospace; font-size: 0px; text-align: start; text-wrap-mode: nowrap;&quot;&gt;%3CmxGraphModel%3E%3Croot%3E%3CmxCell%20id%3D%220%22%2F%3E%3CmxCell%20id%3D%221%22%20parent%3D%220%22%2F%3E%3CmxCell%20id%3D%222%22%20value%3D%22Line%202%22%20style%3D%22text%3Bhtml%3D1%3Balign%3Dcenter%3BverticalAlign%3Dmiddle%3BwhiteSpace%3Dwrap%3Brounded%3D0%3B%22%20vertex%3D%221%22%20parent%3D%221%22%3E%3CmxGeometry%20x%3D%22120%22%20y%3D%22560%22%20width%3D%2260%22%20height%3D%2230%22%20as%3D%22geometry%22%2F%3E%3C%2FmxCell%3E%3C%2Froot%3E%3C%2FmxGraphModel%3E&lt;/span&gt;" style="text;html=1;align=center;verticalAlign=middle;whiteSpace=wrap;rounded=0;" vertex="1" parent="1">
          <mxGeometry x="1860" y="1685" width="60" height="30" as="geometry" />
        </mxCell>
        <mxCell id="ht20jA6_04MrXd1RnvOE-118" value="Line 4" style="text;html=1;align=center;verticalAlign=middle;whiteSpace=wrap;rounded=0;" vertex="1" parent="1">
          <mxGeometry x="1730" y="1795" width="60" height="30" as="geometry" />
        </mxCell>
        <mxCell id="ht20jA6_04MrXd1RnvOE-119" value="Line 3" style="text;html=1;align=center;verticalAlign=middle;whiteSpace=wrap;rounded=0;" vertex="1" parent="1">
          <mxGeometry x="1770" y="1055" width="60" height="30" as="geometry" />
        </mxCell>
        <mxCell id="ht20jA6_04MrXd1RnvOE-120" value="Line 3" style="text;html=1;align=center;verticalAlign=middle;whiteSpace=wrap;rounded=0;" vertex="1" parent="1">
          <mxGeometry x="1920" y="535" width="60" height="30" as="geometry" />
        </mxCell>
        <mxCell id="ht20jA6_04MrXd1RnvOE-121" value="Line 4" style="text;html=1;align=center;verticalAlign=middle;whiteSpace=wrap;rounded=0;" vertex="1" parent="1">
          <mxGeometry x="1640" y="910" width="60" height="30" as="geometry" />
        </mxCell>
        <mxCell id="ht20jA6_04MrXd1RnvOE-122" value="Line 4" style="text;html=1;align=center;verticalAlign=middle;whiteSpace=wrap;rounded=0;" vertex="1" parent="1">
          <mxGeometry x="1640" y="370" width="60" height="30" as="geometry" />
        </mxCell>
        <mxCell id="ht20jA6_04MrXd1RnvOE-130" value="" style="endArrow=none;dashed=1;html=1;rounded=0;entryX=0.5;entryY=1;entryDx=0;entryDy=0;" edge="1" parent="1" target="uiEqAPAhNv8nmmNgFj_g-71">
          <mxGeometry width="50" height="50" relative="1" as="geometry">
            <mxPoint x="850" y="2286.6316303453946" as="sourcePoint" />
            <mxPoint x="820" y="2040" as="targetPoint" />
          </mxGeometry>
        </mxCell>
        <mxCell id="ht20jA6_04MrXd1RnvOE-131" value="" style="endArrow=none;dashed=1;html=1;rounded=0;" edge="1" parent="1">
          <mxGeometry width="50" height="50" relative="1" as="geometry">
            <mxPoint x="920" y="2290" as="sourcePoint" />
            <mxPoint x="920" y="2290" as="targetPoint" />
          </mxGeometry>
        </mxCell>
        <mxCell id="ht20jA6_04MrXd1RnvOE-136" value="" style="endArrow=none;dashed=1;html=1;rounded=0;" edge="1" parent="1">
          <mxGeometry width="50" height="50" relative="1" as="geometry">
            <mxPoint x="920" y="2290" as="sourcePoint" />
            <mxPoint x="850" y="2290" as="targetPoint" />
          </mxGeometry>
        </mxCell>
        <mxCell id="ht20jA6_04MrXd1RnvOE-137" value="" style="endArrow=none;dashed=1;html=1;rounded=0;" edge="1" parent="1">
          <mxGeometry width="50" height="50" relative="1" as="geometry">
            <mxPoint x="920" y="2670" as="sourcePoint" />
            <mxPoint x="920" y="2290" as="targetPoint" />
          </mxGeometry>
        </mxCell>
        <mxCell id="ht20jA6_04MrXd1RnvOE-138" value="" style="endArrow=none;dashed=1;html=1;rounded=0;" edge="1" parent="1">
          <mxGeometry width="50" height="50" relative="1" as="geometry">
            <mxPoint x="870" y="2670" as="sourcePoint" />
            <mxPoint x="920" y="2670" as="targetPoint" />
          </mxGeometry>
        </mxCell>
        <mxCell id="ht20jA6_04MrXd1RnvOE-139" value="" style="endArrow=none;dashed=1;html=1;rounded=0;entryX=0.5;entryY=1;entryDx=0;entryDy=0;" edge="1" parent="1" target="ht20jA6_04MrXd1RnvOE-97">
          <mxGeometry width="50" height="50" relative="1" as="geometry">
            <mxPoint x="1870" y="2190" as="sourcePoint" />
            <mxPoint x="1881.25" y="2055" as="targetPoint" />
          </mxGeometry>
        </mxCell>
        <mxCell id="ht20jA6_04MrXd1RnvOE-140" value="" style="endArrow=none;dashed=1;html=1;rounded=0;" edge="1" parent="1">
          <mxGeometry width="50" height="50" relative="1" as="geometry">
            <mxPoint x="1870" y="2190" as="sourcePoint" />
            <mxPoint x="2810" y="2190" as="targetPoint" />
          </mxGeometry>
        </mxCell>
        <mxCell id="ht20jA6_04MrXd1RnvOE-141" value="" style="endArrow=none;dashed=1;html=1;rounded=0;" edge="1" parent="1">
          <mxGeometry width="50" height="50" relative="1" as="geometry">
            <mxPoint x="2810" y="2190" as="sourcePoint" />
            <mxPoint x="2800" y="565" as="targetPoint" />
          </mxGeometry>
        </mxCell>
        <mxCell id="ht20jA6_04MrXd1RnvOE-143" value="" style="endArrow=classic;html=1;rounded=0;entryX=1;entryY=0.5;entryDx=0;entryDy=0;dashed=1;" edge="1" parent="1" target="uiEqAPAhNv8nmmNgFj_g-11">
          <mxGeometry width="50" height="50" relative="1" as="geometry">
            <mxPoint x="2800" y="565" as="sourcePoint" />
            <mxPoint x="2860" y="530" as="targetPoint" />
          </mxGeometry>
        </mxCell>
        <mxCell id="ht20jA6_04MrXd1RnvOE-145" value="" style="endArrow=none;dashed=1;html=1;rounded=0;entryX=0.5;entryY=1;entryDx=0;entryDy=0;" edge="1" parent="1" target="ht20jA6_04MrXd1RnvOE-99">
          <mxGeometry width="50" height="50" relative="1" as="geometry">
            <mxPoint x="2040" y="2250" as="sourcePoint" />
            <mxPoint x="2111.25" y="2155" as="targetPoint" />
          </mxGeometry>
        </mxCell>
        <mxCell id="ht20jA6_04MrXd1RnvOE-146" value="" style="endArrow=none;dashed=1;html=1;rounded=0;" edge="1" parent="1">
          <mxGeometry width="50" height="50" relative="1" as="geometry">
            <mxPoint x="2040" y="2250" as="sourcePoint" />
            <mxPoint x="2960" y="2250" as="targetPoint" />
          </mxGeometry>
        </mxCell>
        <mxCell id="ht20jA6_04MrXd1RnvOE-147" value="" style="endArrow=none;dashed=1;html=1;rounded=0;" edge="1" parent="1">
          <mxGeometry width="50" height="50" relative="1" as="geometry">
            <mxPoint x="2960" y="2250" as="sourcePoint" />
            <mxPoint x="2960" y="181" as="targetPoint" />
          </mxGeometry>
        </mxCell>
        <mxCell id="ht20jA6_04MrXd1RnvOE-148" value="Line 6" style="text;html=1;align=center;verticalAlign=middle;whiteSpace=wrap;rounded=0;" vertex="1" parent="1">
          <mxGeometry x="1810" y="2145" width="60" height="30" as="geometry" />
        </mxCell>
        <mxCell id="ht20jA6_04MrXd1RnvOE-149" value="Line 6" style="text;html=1;align=center;verticalAlign=middle;whiteSpace=wrap;rounded=0;" vertex="1" parent="1">
          <mxGeometry x="2740" y="1520" width="60" height="30" as="geometry" />
        </mxCell>
        <mxCell id="ht20jA6_04MrXd1RnvOE-150" value="Line 6" style="text;html=1;align=center;verticalAlign=middle;whiteSpace=wrap;rounded=0;" vertex="1" parent="1">
          <mxGeometry x="2730" y="535" width="60" height="30" as="geometry" />
        </mxCell>
        <mxCell id="ht20jA6_04MrXd1RnvOE-151" value="Line 7" style="text;html=1;align=center;verticalAlign=middle;whiteSpace=wrap;rounded=0;" vertex="1" parent="1">
          <mxGeometry x="2030" y="2250" width="60" height="30" as="geometry" />
        </mxCell>
        <mxCell id="ht20jA6_04MrXd1RnvOE-152" value="Line 7" style="text;html=1;align=center;verticalAlign=middle;whiteSpace=wrap;rounded=0;" vertex="1" parent="1">
          <mxGeometry x="2960" y="1395" width="60" height="30" as="geometry" />
        </mxCell>
        <mxCell id="ht20jA6_04MrXd1RnvOE-153" value="Line 7" style="text;html=1;align=center;verticalAlign=middle;whiteSpace=wrap;rounded=0;" vertex="1" parent="1">
          <mxGeometry x="2960" y="380" width="60" height="30" as="geometry" />
        </mxCell>
        <mxCell id="ht20jA6_04MrXd1RnvOE-155" value="Mensagem: &quot;O carro não existe!&quot;" style="rounded=1;whiteSpace=wrap;html=1;" vertex="1" parent="1">
          <mxGeometry x="2473.75" y="1180" width="120" height="60" as="geometry" />
        </mxCell>
        <mxCell id="ht20jA6_04MrXd1RnvOE-157" value="" style="endArrow=none;dashed=1;html=1;rounded=0;entryX=0.5;entryY=1;entryDx=0;entryDy=0;" edge="1" parent="1" target="ht20jA6_04MrXd1RnvOE-155">
          <mxGeometry width="50" height="50" relative="1" as="geometry">
            <mxPoint x="2534" y="1350" as="sourcePoint" />
            <mxPoint x="2480" y="1290" as="targetPoint" />
          </mxGeometry>
        </mxCell>
        <mxCell id="ht20jA6_04MrXd1RnvOE-158" value="" style="endArrow=none;dashed=1;html=1;rounded=0;" edge="1" parent="1">
          <mxGeometry width="50" height="50" relative="1" as="geometry">
            <mxPoint x="2680" y="1350" as="sourcePoint" />
            <mxPoint x="2530" y="1350" as="targetPoint" />
          </mxGeometry>
        </mxCell>
        <mxCell id="ht20jA6_04MrXd1RnvOE-159" value="" style="endArrow=none;dashed=1;html=1;rounded=0;" edge="1" parent="1">
          <mxGeometry width="50" height="50" relative="1" as="geometry">
            <mxPoint x="2680" y="1350" as="sourcePoint" />
            <mxPoint x="2680" y="565" as="targetPoint" />
          </mxGeometry>
        </mxCell>
        <mxCell id="ht20jA6_04MrXd1RnvOE-160" value="Line 5" style="text;html=1;align=center;verticalAlign=middle;whiteSpace=wrap;rounded=0;" vertex="1" parent="1">
          <mxGeometry x="2588.75" y="1355" width="60" height="30" as="geometry" />
        </mxCell>
        <mxCell id="ht20jA6_04MrXd1RnvOE-161" value="Line 5" style="text;html=1;align=center;verticalAlign=middle;whiteSpace=wrap;rounded=0;" vertex="1" parent="1">
          <mxGeometry x="2630" y="750" width="60" height="30" as="geometry" />
        </mxCell>
        <mxCell id="ht20jA6_04MrXd1RnvOE-166" style="edgeStyle=orthogonalEdgeStyle;rounded=0;orthogonalLoop=1;jettySize=auto;html=1;entryX=0.5;entryY=0;entryDx=0;entryDy=0;" edge="1" parent="1" source="ht20jA6_04MrXd1RnvOE-164" target="uiEqAPAhNv8nmmNgFj_g-67">
          <mxGeometry relative="1" as="geometry" />
        </mxCell>
        <mxCell id="ht20jA6_04MrXd1RnvOE-164" value="Listar vagas disponíveis" style="rounded=1;whiteSpace=wrap;html=1;" vertex="1" parent="1">
          <mxGeometry x="440" y="2020" width="120" height="60" as="geometry" />
        </mxCell>
      </root>
    </mxGraphModel>
  </diagram>
</mxfile>
